<svg xmlns="http://www.w3.org/2000/svg" height="25px" viewBox="-10489 8450 21.533 25"><defs><style>.a{fill:#222;}</style></defs><path class="a" d="M63.408,45.54a1.052,1.052,0,0,0,.766.328h4.746V55.905A1.077,1.077,0,0,0,70.016,57H71.84a1.077,1.077,0,0,0,1.095-1.095V45.869h6.2a1.077,1.077,0,0,0,1.095-1.095v-8.76a1.077,1.077,0,0,0-1.095-1.095h-6.2V33.095A1.077,1.077,0,0,0,71.84,32H70.016a1.077,1.077,0,0,0-1.095,1.095v1.824H64.175a.994.994,0,0,0-.766.328l-4.38,4.38a1.058,1.058,0,0,0,0,1.533Zm1.2-8.431H78.044v6.57H64.613l-3.285-3.285Z" transform="translate(-10547.7 8418)"/></svg>